<svg width="1332" height="365" viewBox="0 0 1332 365" fill="none" xmlns="http://www.w3.org/2000/svg">
<g clip-path="url(#clip0_2037_13617)">
<path d="M289.063 353.37C282.98 353.37 277.822 351.11 273.589 346.59L277.041 342.46C278.562 344.35 280.391 345.81 282.528 346.84C284.706 347.86 286.905 348.38 289.124 348.38C291.837 348.38 294.015 347.78 295.659 346.59C297.303 345.4 298.125 343.75 298.125 341.66C298.125 340.51 297.92 339.54 297.509 338.76C297.139 337.94 296.481 337.22 295.536 336.6C294.591 335.94 293.666 335.43 292.762 335.06C291.899 334.65 290.645 334.14 289.001 333.52C288.713 333.4 288.487 333.31 288.323 333.27C286.72 332.7 285.405 332.2 284.378 331.79C283.391 331.34 282.24 330.72 280.925 329.94C279.651 329.16 278.644 328.36 277.905 327.54C277.206 326.72 276.589 325.69 276.055 324.46C275.521 323.22 275.254 321.87 275.254 320.39C275.254 317.14 276.528 314.41 279.076 312.19C281.665 309.93 284.85 308.8 288.631 308.8C293.604 308.8 298.207 310.5 302.44 313.92L299.173 318.17C295.597 315.21 292.084 313.73 288.631 313.73C286.453 313.73 284.604 314.31 283.083 315.46C281.603 316.57 280.843 318.13 280.802 320.14C280.802 321.17 280.987 322.05 281.357 322.79C281.768 323.53 282.487 324.23 283.515 324.89C284.542 325.51 285.467 326.02 286.289 326.43C287.152 326.8 288.446 327.31 290.172 327.97C294.611 329.74 297.509 331.05 298.865 331.92C302.112 334.05 303.735 337.09 303.735 341.04C303.735 344.86 302.297 347.88 299.42 350.1C296.584 352.28 293.132 353.37 289.063 353.37ZM321.761 314.1H308.692V309.23H340.379V314.1H327.125V353H321.761V314.1ZM365.679 353.37C359.267 353.37 353.986 351.29 349.835 347.14C345.725 342.95 343.67 337.61 343.67 331.12C343.67 324.62 345.746 319.28 349.897 315.09C354.048 310.89 359.308 308.8 365.679 308.8C371.926 308.8 377.124 310.87 381.275 315.02C385.426 319.18 387.502 324.54 387.502 331.12C387.502 337.69 385.426 343.05 381.275 347.21C377.124 351.31 371.926 353.37 365.679 353.37ZM365.679 348.31C370.282 348.31 374.124 346.71 377.207 343.51C380.33 340.26 381.892 336.13 381.892 331.12C381.892 326.1 380.33 321.97 377.207 318.72C374.124 315.48 370.282 313.85 365.679 313.85C360.952 313.85 357.027 315.5 353.904 318.79C350.821 322.03 349.28 326.14 349.28 331.12C349.28 336.05 350.821 340.16 353.904 343.44C357.027 346.69 360.952 348.31 365.679 348.31ZM397.378 309.23H402.803L418.893 337.53H419.016L435.106 309.23H440.469V353H435.106V319.65H434.983L420.742 344.18H417.105L402.864 319.65H402.803V353H397.378V309.23ZM464.944 309.23H470.307L486.952 353H481.342L477.396 342.33H457.854L453.97 353H448.36L464.944 309.23ZM475.732 337.65L467.656 315.7H467.533L459.58 337.65H475.732ZM500.109 314.1H487.039V309.23H518.726V314.1H505.472V353H500.109V314.1ZM544.026 353.37C537.615 353.37 532.334 351.29 528.183 347.14C524.073 342.95 522.018 337.61 522.018 331.12C522.018 324.62 524.093 319.28 528.244 315.09C532.395 310.89 537.656 308.8 544.026 308.8C550.273 308.8 555.472 310.87 559.623 315.02C563.774 319.18 565.849 324.54 565.849 331.12C565.849 337.69 563.774 343.05 559.623 347.21C555.472 351.31 550.273 353.37 544.026 353.37ZM544.026 348.31C548.629 348.31 552.472 346.71 555.554 343.51C558.678 340.26 560.24 336.13 560.24 331.12C560.24 326.1 558.678 321.97 555.554 318.72C552.472 315.48 548.629 313.85 544.026 313.85C539.3 313.85 535.375 315.5 532.251 318.79C529.169 322.03 527.628 326.14 527.628 331.12C527.628 336.05 529.169 340.16 532.251 343.44C535.375 346.69 539.3 348.31 544.026 348.31ZM575.725 309.23H581.089V348.13H602.727V353H575.725V309.23ZM629.257 353.37C622.845 353.37 617.564 351.29 613.413 347.14C609.303 342.95 607.248 337.61 607.248 331.12C607.248 324.62 609.324 319.28 613.475 315.09C617.626 310.89 622.886 308.8 629.257 308.8C635.504 308.8 640.703 310.87 644.854 315.02C649.005 319.18 651.08 324.54 651.08 331.12C651.08 337.69 649.005 343.05 644.854 347.21C640.703 351.31 635.504 353.37 629.257 353.37ZM629.257 348.31C633.86 348.31 637.702 346.71 640.785 343.51C643.908 340.26 645.47 336.13 645.47 331.12C645.47 326.1 643.908 321.97 640.785 318.72C637.702 315.48 633.86 313.85 629.257 313.85C624.53 313.85 620.605 315.5 617.482 318.79C614.4 322.03 612.858 326.14 612.858 331.12C612.858 336.05 614.4 340.16 617.482 343.44C620.605 346.69 624.53 348.31 629.257 348.31ZM680.93 353.31C674.559 353.31 669.319 351.29 665.209 347.27C661.1 343.24 659.045 337.88 659.045 331.18C659.045 324.6 661.017 319.24 664.963 315.09C668.949 310.89 674.21 308.8 680.745 308.8C687.444 308.8 692.992 311.08 697.39 315.64L693.629 318.97C690.136 315.6 685.82 313.92 680.683 313.92C676.039 313.92 672.196 315.5 669.155 318.66C666.155 321.83 664.655 326 664.655 331.18C664.655 336.19 666.155 340.32 669.155 343.57C672.155 346.77 676.08 348.38 680.93 348.38C685.492 348.38 689.375 347.16 692.581 344.74V335.31H679.882V330.44H697.944V347.76C693.588 351.46 687.916 353.31 680.93 353.31ZM708.66 309.23H714.02V348.13H735.66V353H708.66V309.23ZM756.96 309.23H762.32L778.97 353H773.36L769.41 342.33H749.87L745.99 353H740.38L756.96 309.23ZM767.75 337.65L759.67 315.7H759.55L751.6 337.65H767.75ZM786.84 309.23H802.38C807.23 309.23 810.85 310.46 813.23 312.93C815.65 315.39 816.87 318.68 816.87 322.79C816.87 329.98 813.23 334.32 805.96 335.8L818.04 353H811.63L800.04 336.29H792.21V353H786.84V309.23ZM800.9 331.42C804.39 331.42 807 330.64 808.73 329.08C810.46 327.48 811.32 325.34 811.32 322.67C811.32 319.92 810.46 317.8 808.73 316.32C807.04 314.84 804.68 314.1 801.64 314.1H792.21V331.42H800.9ZM861.38 353.37C856.28 353.37 852.17 351.77 849.05 348.56C845.97 345.31 844.43 340.86 844.43 335.18V309.23H849.79V334.81C849.79 338.88 850.84 342.15 852.94 344.62C855.03 347.08 857.85 348.31 861.38 348.31C864.83 348.31 867.63 347.1 869.77 344.68C871.94 342.25 873.03 338.96 873.03 334.81V309.23H878.4V335.18C878.4 340.77 876.85 345.21 873.77 348.5C870.73 351.75 866.6 353.37 861.38 353.37ZM909.41 353.31C903.2 353.31 898 351.36 893.81 347.45C889.66 343.55 887.58 338.14 887.58 331.24C887.58 324.79 889.52 319.44 893.38 315.21C897.24 310.94 902.57 308.8 909.35 308.8C916.17 308.8 921.86 311.59 926.42 317.18L922.42 320.51C918.88 316.11 914.52 313.92 909.35 313.92C904.46 313.92 900.53 315.54 897.57 318.79C894.65 321.99 893.19 326.14 893.19 331.24C893.19 336.38 894.72 340.51 897.76 343.63C900.8 346.71 904.68 348.25 909.41 348.25C914.63 348.25 918.98 346.05 922.48 341.66L926.48 345.05C922.05 350.55 916.35 353.31 909.41 353.31ZM935.03 309.23H940.39V329.76H963.27V309.23H968.63V353H963.27V334.63H940.39V353H935.03V309.23ZM996.72 353.37C991.63 353.37 987.52 351.77 984.39 348.56C981.31 345.31 979.77 340.86 979.77 335.18V309.23H985.13V334.81C985.13 338.88 986.18 342.15 988.28 344.62C990.37 347.08 993.19 348.31 996.72 348.31C1000.17 348.31 1002.97 347.1 1005.11 344.68C1007.28 342.25 1008.37 338.96 1008.37 334.81V309.23H1013.74V335.18C1013.74 340.77 1012.2 345.21 1009.11 348.5C1006.07 351.75 1001.94 353.37 996.72 353.37ZM1024.84 309.23H1030.14L1054.86 344.06H1054.92V309.23H1060.28V353H1054.8L1030.32 318.54H1030.2V353H1024.84V309.23Z" fill="white"/>
<path d="M1069 10C1078.24 10 1087.48 10 1097 10C1097 83.92 1097 157.84 1097 234C1088.09 234 1079.18 234 1070 234C1070 177.9 1070 121.8 1070 64C1069.34 64 1068.68 64 1068 64C1067.74 64.706 1067.47 65.412 1067.2 66.139C1065.93 69.169 1064.43 71.921 1062.8 74.77C1062.15 75.893 1061.51 77.017 1060.85 78.175C1060.15 79.387 1059.45 80.6 1058.75 81.812C1058.03 83.073 1057.3 84.334 1056.58 85.595C1050.34 96.451 1044.04 107.269 1037.71 118.073C1034.83 123.005 1031.94 127.94 1029.06 132.875C1028.49 133.855 1027.92 134.835 1027.33 135.845C1022.94 143.362 1018.59 150.897 1014.25 158.438C1009.9 165.992 1005.54 173.542 1001.12 181.062C1000.71 181.765 1000.3 182.467 999.88 183.191C997.12 187.879 997.12 187.879 996 189C994.58 189.087 993.16 189.107 991.75 189.098C990.89 189.094 990.04 189.091 989.16 189.088C988.26 189.08 987.36 189.071 986.44 189.062C985.54 189.058 984.63 189.053 983.71 189.049C981.47 189.037 979.24 189.021 977 189C976.68 188.429 976.36 187.858 976.03 187.27C969.24 175.188 962.38 163.157 955.37 151.197C951.05 143.815 946.77 136.413 942.5 129C937.67 120.612 932.82 112.235 927.94 103.875C927.37 102.907 926.81 101.939 926.23 100.942C923.18 95.721 920.12 90.509 917.05 85.305C916.4 84.208 915.76 83.111 915.09 81.981C913.85 79.873 912.6 77.767 911.35 75.664C910.52 74.245 910.52 74.245 909.67 72.797C909.18 71.965 908.68 71.133 908.18 70.276C907.08 68.161 906.46 66.326 906 64C905.34 64 904.68 64 904 64C904 120.1 904 176.2 904 234C895.09 234 886.18 234 877 234C877 160.41 877 86.82 877 11C886.24 11 895.48 11 905 11C910 19.75 910 19.75 911.74 22.796C914.79 28.139 917.85 33.48 920.9 38.82C927.65 50.622 934.39 62.434 941.07 74.277C945.69 82.466 950.35 90.631 955.03 98.792C960.18 107.798 965.3 116.822 970.39 125.864C972.98 130.454 975.59 135.029 978.25 139.578C978.77 140.461 979.28 141.344 979.81 142.254C980.79 143.918 981.77 145.581 982.75 147.24C983.18 147.972 983.61 148.703 984.05 149.457C984.62 150.416 984.62 150.416 985.2 151.394C986 153 986 153 986 155C986.66 155 987.32 155 988 155C988.2 154.23 988.4 153.461 988.61 152.668C990.56 147.524 993.37 143.021 996.19 138.312C1001.43 129.449 1006.53 120.521 1011.5 111.5C1016.78 101.937 1022.19 92.472 1027.73 83.059C1032.76 74.484 1037.58 65.801 1042.38 57.097C1047.21 48.362 1052.2 39.732 1057.26 31.127C1061.35 24.165 1065.25 17.146 1069 10Z" fill="white"/>
<path fill-rule="evenodd" clip-rule="evenodd" d="M771.12 19.3669L768 17.9999C744.04 6.63586 716.01 4.87589 690.375 11.1369L687 11.9999C676.787 14.5149 667.944 18.7108 658.867 23.9148L657 24.9999C655.27 26.0049 653.558 27.0419 651.875 28.1249C627.436 46.1719 612.667 73.2138 607.823 102.86C603.473 133.8 609.826 167.117 628.223 192.7C646.364 216.6 672.535 230.87 701.93 235.6C731.81 239.45 763.33 232.63 787.73 214.734C812.63 195.784 826.09 169.093 830.62 138.463C833.83 109.385 828.74 77.2209 810.85 53.3359L809 50.9999L808.57 50.4469C804.45 45.1079 800.36 39.8159 795.06 35.5899L793 33.9999C786.05 28.3189 779.33 23.1479 771.12 19.3669ZM686.235 39.7489C678.205 43.0189 670.73 47.7089 663.973 54.0249L661.489 56.2339C653.786 63.4529 647.812 71.9069 643.459 81.3329C642.623 83.0949 641.847 84.9059 641.133 86.7729L640.585 88.3338C640.385 88.8868 640.19 89.4419 640 89.9999C639.999 90.0049 639.997 90.0099 639.995 90.0149C639.729 90.7329 639.477 91.4118 639.24 92.0578L638.813 93.2149C638.801 93.2539 638.788 93.2929 638.776 93.3329C637.946 95.6369 637.316 97.5439 636.845 99.4889C635.681 104.295 635.484 109.335 635.626 121.184C635.626 121.393 635.625 121.603 635.625 121.812L635.62 123.834C635.62 126.226 635.666 128.584 635.777 130.917C635.792 131.789 635.807 132.687 635.823 133.613C636.893 154.071 646.93 173.803 661.641 187.847L663.831 189.845L664.989 191.023C672.163 197.813 680.636 202.718 689.742 205.875C696.729 208.463 704.106 210 711.66 210.305C715.05 210.374 718.4 210.346 721.71 210.197C727.88 210.024 733.79 209.298 739.44 208.004C750.81 205.548 761.45 200.899 770.87 192.877C773.82 190.545 776.68 187.971 779.44 185.152C785.19 178.994 789.72 172.26 793.24 165.014C795.28 161.017 797 156.758 798.4 152.13L799 150C799.2 149.312 799.38 148.628 799.56 147.947C800.09 145.992 800.57 144.009 801 142L801.52 139.751C804.22 124.27 803.52 104.713 798 89.9999L797.65 89.0348C794.1 78.5028 788.43 68.7539 780.34 60.3049L779.77 59.7439C771.47 50.8409 761.31 43.6669 750.01 38.6799C729.5 30.8379 706.2 31.2829 686.235 39.7489Z" fill="white"/>
<path d="M555.305 33.691C558.385 36.33 561.253 39.018 564 42C562.362 46.402 559.018 49.054 555.625 52.125C555.048 52.663 554.47 53.2 553.875 53.754C551.081 56.312 548.568 58.576 545 60C544.536 59.527 544.072 59.054 543.594 58.566C524.825 40.603 499.722 34.26 474.41 34.758C452.089 35.543 433.692 45.33 418.316 61.273C404.401 77.652 398.228 98.675 398.479 119.855C398.5 122.001 398.479 124.143 398.453 126.289C398.411 146.712 405.007 166.154 418 182C418.83 183.073 418.83 183.073 419.676 184.168C430.184 197.134 448.381 207.163 465 209C470.041 209.284 475.077 209.368 480.125 209.375C482.019 209.378 482.019 209.378 483.951 209.381C501.783 209.168 525.607 205.393 539 192C539.331 189.819 539.331 189.819 539.319 187.275C539.339 186.28 539.359 185.286 539.38 184.261C539.397 182.689 539.397 182.689 539.414 181.086C539.441 179.644 539.441 179.644 539.468 178.173C539.531 174.574 539.577 170.974 539.625 167.375C539.749 159.331 539.873 151.288 540 143C518.88 143 497.76 143 476 143C476 135.08 476 127.16 476 119C506.03 119 536.06 119 567 119C567.186 133.541 567.371 148.081 567.562 163.063C567.685 169.937 567.685 169.937 567.811 176.949C567.851 182.567 567.851 182.567 567.859 185.201C567.873 187.032 567.904 188.863 567.95 190.693C568.318 206.153 568.318 206.153 565.062 210.717C562.769 212.532 560.648 213.779 558 215C556.8 215.77 555.607 216.56 554.43 217.37C531.518 231.05 507.469 235.18 481.188 235.38C480.502 235.38 479.816 235.39 479.109 235.4C449.747 235.66 421.055 225.33 399.781 204.809C377.599 182.408 369.163 153.603 368.875 122.688C369.013 109.155 370.262 96.963 374 84C374.276 82.984 374.552 81.968 374.836 80.922C382.467 55.3 400.75 33.589 424 20.73C465.538 -1.26704 518.834 4.39596 555.305 33.691Z" fill="white"/>
<path d="M9 10C58.17 10 107.34 10 158 10C158 35.461 158 35.461 150 44C148.475 46.19 147.005 48.382 145.562 50.625C144.716 51.909 143.867 53.191 143.016 54.473C142.546 55.181 142.076 55.888 141.592 56.618C138.361 61.452 135.084 66.256 131.812 71.062C131.08 72.139 130.347 73.216 129.592 74.325C124.285 82.118 118.974 89.907 113.661 97.696C106.816 107.733 99.987 117.78 93.157 127.827C89.605 133.052 86.053 138.276 82.5 143.5C81.083 145.583 79.667 147.667 78.25 149.75C69.75 162.25 69.75 162.25 67.621 165.38C66.217 167.446 64.812 169.511 63.408 171.577C60.082 176.469 56.755 181.36 53.428 186.252C51.852 188.568 50.277 190.885 48.701 193.201C47.586 194.84 46.471 196.48 45.355 198.119C44.683 199.108 44.01 200.098 43.316 201.117C42.723 201.99 42.129 202.862 41.518 203.761C40.337 205.502 39.167 207.25 38 209C77.93 209 117.86 209 159 209C159 217.25 159 225.5 159 234C107.52 234 56.04 234 3 234C3 208.606 3.00001 208.606 10.058 199.454C10.82 198.446 10.82 198.446 11.597 197.417C12.122 196.722 12.647 196.028 13.188 195.312C14.275 193.792 15.357 192.268 16.434 190.74C18.73 187.492 21.049 184.263 23.385 181.044C28.974 173.3 34.246 165.341 39.555 157.404C41.989 153.772 44.437 150.15 46.885 146.527C54.582 135.138 62.204 123.699 69.812 112.25C77.112 101.267 84.47 90.341 92.058 79.555C100.95 66.87 109.448 53.914 118.007 41.005C119.336 39.002 120.667 37 122 35C84.71 35 47.42 35 9 35C9 26.75 9 18.5 9 10Z" fill="white"/>
<path d="M182 9.99996C208.189 7.52496 208.189 7.52498 215.176 11.119C218.611 14.434 220.096 18.869 221.796 23.244C223.962 28.202 226.962 32.674 229.839 37.244C231.71 40.235 233.53 43.2559 235.352 46.2769C235.728 46.8999 236.103 47.522 236.491 48.163C241.387 56.281 246.199 64.45 251.023 72.611C257.485 83.535 264.115 94.336 271 105C274.011 102.356 275.861 99.116 277.852 95.692C278.223 95.062 278.594 94.433 278.976 93.784C279.777 92.424 280.576 91.063 281.373 89.702C283.512 86.047 285.667 82.401 287.82 78.754C288.258 78.012 288.696 77.2699 289.146 76.5059C291.859 71.9119 294.596 67.3359 297.367 62.7769C298.052 61.6499 298.736 60.5219 299.441 59.3599C300.818 57.1129 302.21 54.875 303.615 52.646C307.134 47.034 310.337 41.441 313.109 35.418C323.799 12.254 323.799 12.2539 330.905 9.17495C340.64 6.49595 351.259 8.12296 361 9.99996C359.702 13.454 358.196 16.531 356.27 19.676C355.722 20.573 355.174 21.471 354.61 22.396C354.017 23.358 353.424 24.3209 352.812 25.3129C352.191 26.3269 351.57 27.342 350.929 28.388C345.917 36.553 340.843 44.68 335.754 52.797C329.729 62.412 323.787 72.076 317.848 81.742C312.794 89.967 307.71 98.172 302.625 106.377C300.873 109.205 299.124 112.034 297.375 114.863C296.779 115.827 296.183 116.791 295.569 117.784C294.424 119.636 293.28 121.487 292.136 123.339C291.623 124.168 291.11 124.997 290.582 125.852C290.131 126.582 289.679 127.313 289.214 128.065C288.171 129.728 287.089 131.367 286 133C285.691 134.991 285.691 134.991 285.722 137.195C285.71 138.049 285.699 138.903 285.688 139.783C285.686 140.717 285.683 141.65 285.681 142.612C285.671 143.598 285.661 144.583 285.651 145.599C285.62 148.861 285.603 152.124 285.586 155.387C285.567 157.647 285.548 159.907 285.527 162.167C285.476 168.12 285.436 174.073 285.399 180.026C285.359 186.099 285.308 192.171 285.258 198.244C285.161 210.163 285.078 222.08 285 234C276.09 234 267.18 234 258 234C258.048 231.1 258.097 228.2 258.146 225.22C258.296 215.54 258.361 205.86 258.386 196.18C258.404 190.322 258.448 184.468 258.559 178.611C259.899 142.505 259.899 142.505 243.912 111.37C240.645 107.32 238.092 102.839 235.438 98.375C234.377 96.662 233.314 94.951 232.246 93.242C228.795 87.683 225.395 82.093 222 76.5C217.013 68.287 211.981 60.1029 206.91 51.9409C202.166 44.2939 197.491 36.606 192.844 28.901C189.729 23.757 186.517 18.723 183.082 13.786C182 12 182 12 182 9.99996Z" fill="white"/>
<path fill-rule="evenodd" clip-rule="evenodd" d="M1223 9.90295L1219.59 9.88696C1218.4 9.93896 1217.64 9.97196 1217.04 10.296C1215.98 10.869 1215.41 12.3489 1213.82 16.4439L1212.92 18.7809C1209.68 27.1849 1206.48 35.6069 1203.31 44.0349C1201.5 48.8389 1199.69 53.6429 1197.88 58.4459L1196.71 61.5309C1192.5 72.6759 1188.27 83.8119 1184.04 94.9449C1178.66 109.084 1173.29 123.226 1167.95 137.383L1167.21 139.356C1164.98 145.288 1162.74 151.221 1160.51 157.154L1159.6 159.559C1155.24 171.157 1150.88 182.755 1146.42 194.317L1145.31 197.188C1143.65 201.484 1141.99 205.781 1140.32 210.071C1139.74 211.568 1139.15 213.066 1138.57 214.564L1137.77 216.64C1135.51 222.4 1133.8 228.01 1132 234H1161C1162.85 228.83 1164.7 223.66 1166.54 218.49C1167.3 216.37 1168.06 214.248 1168.81 212.125C1169.92 209.019 1171.04 205.912 1172.14 202.804L1173.21 199.821L1174.22 196.994L1175.19 194.266C1175.81 192.518 1176.41 190.761 1177 189L1180 179L1280 180C1280.34 180.858 1280.69 181.715 1281.03 182.572C1282.41 185.997 1283.78 189.422 1285.09 192.873L1285.92 195.175L1286.89 197.842L1287.89 200.602C1288.97 203.585 1290.06 206.569 1291.14 209.553C1291.89 211.619 1292.63 213.685 1293.38 215.75L1295.68 222.07L1296.64 224.73L1300 234H1329C1329 233.81 1329 233.66 1328.99 233.5C1328.94 232.73 1328.66 231.98 1326.97 227.51L1326.05 225.1L1324.87 221.97C1324.25 220.31 1323.62 218.66 1322.99 217.01C1322.24 215.03 1321.49 213.052 1320.74 211.07C1318.7 205.681 1316.66 200.293 1314.62 194.906C1312.87 190.293 1311.12 185.68 1309.37 181.067C1299.35 154.593 1289.3 128.13 1279.19 101.688L1278.91 100.954C1274.38 89.1049 1269.84 77.2559 1265.37 65.3859L1264.19 62.2579L1264.09 61.9869C1262.28 57.1889 1260.47 52.3909 1258.67 47.5889C1253.94 34.9919 1249.04 22.4739 1244 9.99994C1241.69 9.98494 1239.38 9.97291 1237.07 9.96191C1236.2 9.95791 1235.32 9.95493 1234.45 9.95093L1230.56 9.93793L1226.69 9.91193L1223 9.90295ZM1231 43.9999H1229C1220.66 66.4239 1212.47 88.9069 1204.37 111.419C1203.92 112.672 1203.47 113.925 1203.02 115.178C1202.69 116.088 1202.36 116.999 1202.03 117.909C1200.77 121.406 1199.51 124.904 1198.25 128.404C1197.78 129.722 1197.31 131.041 1196.83 132.359L1195.49 136.08L1194.23 139.593C1193.64 141.233 1193.24 142.352 1192.85 143.477C1192.03 145.888 1191.3 148.328 1189 156H1272C1272 155.141 1272 154.651 1271.93 154.171C1271.84 153.532 1271.63 152.911 1271.14 151.465L1269.89 148.152L1268.44 144.273C1267.03 140.506 1265.61 136.738 1264.21 132.967L1263.26 130.438C1260.52 123.091 1257.79 115.736 1255.09 108.376L1253.01 102.737C1251.38 98.3039 1249.75 93.8709 1248.12 89.4379C1242.55 74.2389 1236.95 59.0559 1231 43.9999Z" fill="white"/>
</g>
<defs>
<clipPath id="clip0_2037_13617">
<rect width="1332" height="365" fill="white"/>
</clipPath>
</defs>
</svg>
