<svg width="1920" height="1920" viewBox="0 0 1920 1920" fill="none" xmlns="http://www.w3.org/2000/svg">
<path d="M583.063 1138.37C576.98 1138.37 571.822 1136.11 567.589 1131.59L571.041 1127.46C572.562 1129.35 574.391 1130.81 576.528 1131.84C578.706 1132.86 580.905 1133.38 583.124 1133.38C585.837 1133.38 588.015 1132.78 589.659 1131.59C591.303 1130.4 592.125 1128.75 592.125 1126.66C592.125 1125.51 591.92 1124.54 591.509 1123.76C591.139 1122.94 590.481 1122.22 589.536 1121.6C588.591 1120.94 587.666 1120.43 586.762 1120.06C585.899 1119.65 584.645 1119.14 583.001 1118.52C582.713 1118.4 582.487 1118.31 582.323 1118.27C580.72 1117.7 579.405 1117.2 578.378 1116.79C577.391 1116.34 576.24 1115.72 574.925 1114.94C573.651 1114.16 572.644 1113.36 571.905 1112.54C571.206 1111.72 570.589 1110.69 570.055 1109.46C569.521 1108.22 569.254 1106.87 569.254 1105.39C569.254 1102.14 570.528 1099.41 573.076 1097.19C575.665 1094.93 578.85 1093.8 582.631 1093.8C587.604 1093.8 592.207 1095.5 596.44 1098.92L593.173 1103.17C589.597 1100.21 586.084 1098.73 582.631 1098.73C580.453 1098.73 578.604 1099.31 577.083 1100.46C575.603 1101.57 574.843 1103.13 574.802 1105.14C574.802 1106.17 574.987 1107.05 575.357 1107.79C575.768 1108.53 576.487 1109.23 577.515 1109.89C578.542 1110.51 579.467 1111.02 580.289 1111.43C581.152 1111.8 582.446 1112.31 584.172 1112.97C588.611 1114.74 591.509 1116.05 592.865 1116.92C596.112 1119.05 597.735 1122.09 597.735 1126.04C597.735 1129.86 596.297 1132.88 593.42 1135.1C590.584 1137.28 587.132 1138.37 583.063 1138.37ZM615.761 1099.1H602.692V1094.23H634.379V1099.1H621.125V1138H615.761V1099.1ZM659.679 1138.37C653.267 1138.37 647.986 1136.29 643.835 1132.14C639.725 1127.95 637.67 1122.61 637.67 1116.12C637.67 1109.62 639.746 1104.28 643.897 1100.09C648.048 1095.89 653.308 1093.8 659.679 1093.8C665.926 1093.8 671.124 1095.87 675.275 1100.02C679.426 1104.18 681.502 1109.54 681.502 1116.12C681.502 1122.69 679.426 1128.05 675.275 1132.21C671.124 1136.31 665.926 1138.37 659.679 1138.37ZM659.679 1133.31C664.282 1133.31 668.124 1131.71 671.207 1128.51C674.33 1125.26 675.892 1121.13 675.892 1116.12C675.892 1111.1 674.33 1106.97 671.207 1103.72C668.124 1100.48 664.282 1098.85 659.679 1098.85C654.952 1098.85 651.027 1100.5 647.904 1103.79C644.821 1107.03 643.28 1111.14 643.28 1116.12C643.28 1121.05 644.821 1125.16 647.904 1128.44C651.027 1131.69 654.952 1133.31 659.679 1133.31ZM691.378 1094.23H696.803L712.893 1122.53H713.016L729.106 1094.23H734.469V1138H729.106V1104.65H728.983L714.742 1129.18H711.105L696.864 1104.65H696.803V1138H691.378V1094.23ZM758.944 1094.23H764.307L780.952 1138H775.342L771.396 1127.33H751.854L747.97 1138H742.36L758.944 1094.23ZM769.732 1122.65L761.656 1100.7H761.533L753.58 1122.65H769.732ZM794.109 1099.1H781.039V1094.23H812.726V1099.1H799.472V1138H794.109V1099.1ZM838.026 1138.37C831.615 1138.37 826.334 1136.29 822.183 1132.14C818.073 1127.95 816.018 1122.61 816.018 1116.12C816.018 1109.62 818.093 1104.28 822.244 1100.09C826.395 1095.89 831.656 1093.8 838.026 1093.8C844.273 1093.8 849.472 1095.87 853.623 1100.02C857.774 1104.18 859.849 1109.54 859.849 1116.12C859.849 1122.69 857.774 1128.05 853.623 1132.21C849.472 1136.31 844.273 1138.37 838.026 1138.37ZM838.026 1133.31C842.629 1133.31 846.472 1131.71 849.554 1128.51C852.678 1125.26 854.24 1121.13 854.24 1116.12C854.24 1111.1 852.678 1106.97 849.554 1103.72C846.472 1100.48 842.629 1098.85 838.026 1098.85C833.3 1098.85 829.375 1100.5 826.251 1103.79C823.169 1107.03 821.628 1111.14 821.628 1116.12C821.628 1121.05 823.169 1125.16 826.251 1128.44C829.375 1131.69 833.3 1133.31 838.026 1133.31ZM869.725 1094.23H875.089V1133.13H896.727V1138H869.725V1094.23ZM923.257 1138.37C916.845 1138.37 911.564 1136.29 907.413 1132.14C903.303 1127.95 901.248 1122.61 901.248 1116.12C901.248 1109.62 903.324 1104.28 907.475 1100.09C911.626 1095.89 916.886 1093.8 923.257 1093.8C929.504 1093.8 934.703 1095.87 938.854 1100.02C943.005 1104.18 945.08 1109.54 945.08 1116.12C945.08 1122.69 943.005 1128.05 938.854 1132.21C934.703 1136.31 929.504 1138.37 923.257 1138.37ZM923.257 1133.31C927.86 1133.31 931.702 1131.71 934.785 1128.51C937.908 1125.26 939.47 1121.13 939.47 1116.12C939.47 1111.1 937.908 1106.97 934.785 1103.72C931.702 1100.48 927.86 1098.85 923.257 1098.85C918.53 1098.85 914.605 1100.5 911.482 1103.79C908.4 1107.03 906.858 1111.14 906.858 1116.12C906.858 1121.05 908.4 1125.16 911.482 1128.44C914.605 1131.69 918.53 1133.31 923.257 1133.31ZM974.93 1138.31C968.559 1138.31 963.319 1136.29 959.209 1132.27C955.1 1128.24 953.045 1122.88 953.045 1116.18C953.045 1109.6 955.017 1104.24 958.963 1100.09C962.949 1095.89 968.21 1093.8 974.745 1093.8C981.444 1093.8 986.992 1096.08 991.39 1100.64L987.629 1103.97C984.136 1100.6 979.82 1098.92 974.683 1098.92C970.039 1098.92 966.196 1100.5 963.155 1103.66C960.155 1106.83 958.655 1111 958.655 1116.18C958.655 1121.19 960.155 1125.32 963.155 1128.57C966.155 1131.77 970.08 1133.38 974.93 1133.38C979.492 1133.38 983.375 1132.16 986.581 1129.74V1120.31H973.882V1115.44H991.944V1132.76C987.588 1136.46 981.916 1138.31 974.93 1138.31ZM1002.66 1094.23H1008.02V1133.13H1029.66V1138H1002.66V1094.23ZM1050.96 1094.23H1056.32L1072.97 1138H1067.36L1063.41 1127.33H1043.87L1039.99 1138H1034.38L1050.96 1094.23ZM1061.75 1122.65L1053.67 1100.7H1053.55L1045.6 1122.65H1061.75ZM1080.84 1094.23H1096.38C1101.23 1094.23 1104.85 1095.46 1107.23 1097.93C1109.65 1100.39 1110.87 1103.68 1110.87 1107.79C1110.87 1114.98 1107.23 1119.32 1099.96 1120.8L1112.04 1138H1105.63L1094.04 1121.29H1086.21V1138H1080.84V1094.23ZM1094.9 1116.42C1098.39 1116.42 1101 1115.64 1102.73 1114.08C1104.46 1112.48 1105.32 1110.34 1105.32 1107.67C1105.32 1104.92 1104.46 1102.8 1102.73 1101.32C1101.04 1099.84 1098.68 1099.1 1095.64 1099.1H1086.21V1116.42H1094.9ZM1155.38 1138.37C1150.28 1138.37 1146.17 1136.77 1143.05 1133.56C1139.97 1130.31 1138.43 1125.86 1138.43 1120.18V1094.23H1143.79V1119.81C1143.79 1123.88 1144.84 1127.15 1146.94 1129.62C1149.03 1132.08 1151.85 1133.31 1155.38 1133.31C1158.83 1133.31 1161.63 1132.1 1163.77 1129.68C1165.94 1127.25 1167.03 1123.96 1167.03 1119.81V1094.23H1172.4V1120.18C1172.4 1125.77 1170.85 1130.21 1167.77 1133.5C1164.73 1136.75 1160.6 1138.37 1155.38 1138.37ZM1203.41 1138.31C1197.2 1138.31 1192 1136.36 1187.81 1132.45C1183.66 1128.55 1181.58 1123.14 1181.58 1116.24C1181.58 1109.79 1183.52 1104.44 1187.38 1100.21C1191.24 1095.94 1196.57 1093.8 1203.35 1093.8C1210.17 1093.8 1215.86 1096.59 1220.42 1102.18L1216.42 1105.51C1212.88 1101.11 1208.52 1098.92 1203.35 1098.92C1198.46 1098.92 1194.53 1100.54 1191.57 1103.79C1188.65 1106.99 1187.19 1111.14 1187.19 1116.24C1187.19 1121.38 1188.72 1125.51 1191.76 1128.63C1194.8 1131.71 1198.68 1133.25 1203.41 1133.25C1208.63 1133.25 1212.98 1131.05 1216.48 1126.66L1220.48 1130.05C1216.05 1135.55 1210.35 1138.31 1203.41 1138.31ZM1229.03 1094.23H1234.39V1114.76H1257.27V1094.23H1262.63V1138H1257.27V1119.63H1234.39V1138H1229.03V1094.23ZM1290.72 1138.37C1285.63 1138.37 1281.52 1136.77 1278.39 1133.56C1275.31 1130.31 1273.77 1125.86 1273.77 1120.18V1094.23H1279.13V1119.81C1279.13 1123.88 1280.18 1127.15 1282.28 1129.62C1284.37 1132.08 1287.19 1133.31 1290.72 1133.31C1294.17 1133.31 1296.97 1132.1 1299.11 1129.68C1301.28 1127.25 1302.37 1123.96 1302.37 1119.81V1094.23H1307.74V1120.18C1307.74 1125.77 1306.2 1130.21 1303.11 1133.5C1300.07 1136.75 1295.94 1138.37 1290.72 1138.37ZM1318.84 1094.23H1324.14L1348.86 1129.06H1348.92V1094.23H1354.28V1138H1348.8L1324.32 1103.54H1324.2V1138H1318.84V1094.23Z" fill="white"/>
<path d="M1363 795C1372.24 795 1381.48 795 1391 795C1391 868.92 1391 942.84 1391 1019C1382.09 1019 1373.18 1019 1364 1019C1364 962.9 1364 906.8 1364 849C1363.34 849 1362.68 849 1362 849C1361.74 849.706 1361.47 850.412 1361.2 851.139C1359.93 854.169 1358.43 856.921 1356.8 859.77C1356.15 860.893 1355.51 862.017 1354.85 863.175C1354.15 864.387 1353.45 865.6 1352.75 866.812C1352.03 868.073 1351.3 869.334 1350.58 870.595C1344.34 881.451 1338.04 892.269 1331.71 903.073C1328.83 908.005 1325.94 912.94 1323.06 917.875C1322.49 918.855 1321.92 919.835 1321.33 920.845C1316.94 928.362 1312.59 935.897 1308.25 943.438C1303.9 950.992 1299.54 958.542 1295.12 966.062C1294.71 966.765 1294.3 967.467 1293.88 968.191C1291.12 972.879 1291.12 972.879 1290 974C1288.58 974.087 1287.16 974.107 1285.75 974.098C1284.89 974.094 1284.04 974.091 1283.16 974.088C1282.26 974.08 1281.36 974.071 1280.44 974.062C1279.54 974.058 1278.63 974.053 1277.71 974.049C1275.47 974.037 1273.24 974.021 1271 974C1270.68 973.429 1270.36 972.858 1270.03 972.27C1263.24 960.188 1256.38 948.157 1249.37 936.197C1245.05 928.815 1240.77 921.413 1236.5 914C1231.67 905.612 1226.82 897.235 1221.94 888.875C1221.37 887.907 1220.81 886.939 1220.23 885.942C1217.18 880.721 1214.12 875.509 1211.05 870.305C1210.4 869.208 1209.76 868.111 1209.09 866.981C1207.85 864.873 1206.6 862.767 1205.35 860.664C1204.52 859.245 1204.52 859.245 1203.67 857.797C1203.18 856.965 1202.68 856.133 1202.18 855.276C1201.08 853.161 1200.46 851.326 1200 849C1199.34 849 1198.68 849 1198 849C1198 905.1 1198 961.2 1198 1019C1189.09 1019 1180.18 1019 1171 1019C1171 945.41 1171 871.82 1171 796C1180.24 796 1189.48 796 1199 796C1204 804.75 1204 804.75 1205.74 807.796C1208.79 813.139 1211.85 818.48 1214.9 823.82C1221.65 835.622 1228.39 847.434 1235.07 859.277C1239.69 867.466 1244.35 875.631 1249.03 883.792C1254.18 892.798 1259.3 901.822 1264.39 910.864C1266.98 915.454 1269.59 920.029 1272.25 924.578C1272.77 925.461 1273.28 926.344 1273.81 927.254C1274.79 928.918 1275.77 930.581 1276.75 932.24C1277.18 932.972 1277.61 933.703 1278.05 934.457C1278.62 935.416 1278.62 935.416 1279.2 936.394C1280 938 1280 938 1280 940C1280.66 940 1281.32 940 1282 940C1282.2 939.23 1282.4 938.461 1282.61 937.668C1284.56 932.524 1287.37 928.021 1290.19 923.312C1295.43 914.449 1300.53 905.521 1305.5 896.5C1310.78 886.937 1316.19 877.472 1321.73 868.059C1326.76 859.484 1331.58 850.801 1336.38 842.097C1341.21 833.362 1346.2 824.732 1351.26 816.127C1355.35 809.165 1359.25 802.146 1363 795Z" fill="white"/>
<path fill-rule="evenodd" clip-rule="evenodd" d="M1065.12 804.367L1062 803C1038.04 791.636 1010.01 789.876 984.375 796.137L981 797C970.787 799.515 961.944 803.711 952.867 808.915L951 810C949.27 811.005 947.558 812.042 945.875 813.125C921.436 831.172 906.667 858.214 901.823 887.86C897.473 918.8 903.826 952.117 922.223 977.7C940.364 1001.6 966.535 1015.87 995.93 1020.6C1025.81 1024.45 1057.33 1017.63 1081.73 999.734C1106.63 980.784 1120.09 954.093 1124.62 923.463C1127.83 894.385 1122.74 862.221 1104.85 838.336L1103 836L1102.57 835.447C1098.45 830.108 1094.36 824.816 1089.06 820.59L1087 819C1080.05 813.319 1073.33 808.148 1065.12 804.367ZM980.235 824.749C972.205 828.019 964.73 832.709 957.973 839.025L955.489 841.234C947.786 848.453 941.812 856.907 937.459 866.333C936.623 868.095 935.847 869.906 935.133 871.773L934.585 873.334C934.385 873.887 934.19 874.442 934 875C933.999 875.005 933.997 875.01 933.995 875.015C933.729 875.733 933.477 876.412 933.24 877.058L932.813 878.215C932.801 878.254 932.788 878.293 932.776 878.333C931.946 880.637 931.316 882.544 930.845 884.489C929.681 889.295 929.484 894.335 929.626 906.184C929.626 906.393 929.625 906.603 929.625 906.812L929.62 908.834C929.62 911.226 929.666 913.584 929.777 915.917C929.792 916.789 929.807 917.687 929.823 918.613C930.893 939.071 940.93 958.803 955.641 972.847L957.831 974.845L958.989 976.023C966.163 982.813 974.636 987.718 983.742 990.875C990.729 993.463 998.106 995 1005.66 995.305C1009.05 995.374 1012.4 995.346 1015.71 995.197C1021.88 995.024 1027.79 994.298 1033.44 993.004C1044.81 990.548 1055.45 985.899 1064.87 977.877C1067.82 975.545 1070.68 972.971 1073.44 970.152C1079.19 963.994 1083.72 957.26 1087.24 950.014C1089.28 946.017 1091 941.758 1092.4 937.13L1093 935C1093.2 934.312 1093.38 933.628 1093.56 932.947C1094.09 930.992 1094.57 929.009 1095 927L1095.52 924.751C1098.22 909.27 1097.52 889.713 1092 875L1091.65 874.035C1088.1 863.503 1082.43 853.754 1074.34 845.305L1073.77 844.744C1065.47 835.841 1055.31 828.667 1044.01 823.68C1023.5 815.838 1000.2 816.283 980.235 824.749Z" fill="white"/>
<path d="M849.305 818.691C852.385 821.33 855.253 824.018 858 827C856.362 831.402 853.018 834.054 849.625 837.125C849.048 837.663 848.47 838.2 847.875 838.754C845.081 841.312 842.568 843.576 839 845C838.536 844.527 838.072 844.054 837.594 843.566C818.825 825.603 793.722 819.26 768.41 819.758C746.089 820.543 727.692 830.33 712.316 846.273C698.401 862.652 692.228 883.675 692.479 904.855C692.5 907.001 692.479 909.143 692.453 911.289C692.411 931.712 699.007 951.154 712 967C712.83 968.073 712.83 968.073 713.676 969.168C724.184 982.134 742.381 992.163 759 994C764.041 994.284 769.077 994.368 774.125 994.375C776.019 994.378 776.019 994.378 777.951 994.381C795.783 994.168 819.607 990.393 833 977C833.331 974.819 833.331 974.819 833.319 972.275C833.339 971.28 833.359 970.286 833.38 969.261C833.397 967.689 833.397 967.689 833.414 966.086C833.441 964.644 833.441 964.644 833.468 963.173C833.531 959.574 833.577 955.974 833.625 952.375C833.749 944.331 833.873 936.288 834 928C812.88 928 791.76 928 770 928C770 920.08 770 912.16 770 904C800.03 904 830.06 904 861 904C861.186 918.541 861.371 933.081 861.562 948.063C861.685 954.937 861.685 954.937 861.811 961.949C861.851 967.567 861.851 967.567 861.859 970.201C861.873 972.032 861.904 973.863 861.95 975.693C862.318 991.153 862.318 991.153 859.062 995.717C856.769 997.532 854.648 998.779 852 1000C850.8 1000.77 849.607 1001.56 848.43 1002.37C825.518 1016.05 801.469 1020.18 775.188 1020.38C774.502 1020.38 773.816 1020.39 773.109 1020.4C743.747 1020.66 715.055 1010.33 693.781 989.809C671.599 967.408 663.163 938.603 662.875 907.688C663.013 894.155 664.262 881.963 668 869C668.276 867.984 668.552 866.968 668.836 865.922C676.467 840.3 694.75 818.589 718 805.73C759.538 783.733 812.834 789.396 849.305 818.691Z" fill="white"/>
<path d="M303 795C352.17 795 401.34 795 452 795C452 820.461 452 820.461 444 829C442.475 831.19 441.005 833.382 439.562 835.625C438.716 836.909 437.867 838.191 437.016 839.473C436.546 840.181 436.076 840.888 435.592 841.618C432.361 846.452 429.084 851.256 425.812 856.062C425.08 857.139 424.347 858.216 423.592 859.325C418.285 867.118 412.974 874.907 407.661 882.696C400.816 892.733 393.987 902.78 387.157 912.827C383.605 918.052 380.053 923.276 376.5 928.5C375.083 930.583 373.667 932.667 372.25 934.75C363.75 947.25 363.75 947.25 361.621 950.38C360.217 952.446 358.812 954.511 357.408 956.577C354.082 961.469 350.755 966.36 347.428 971.252C345.852 973.568 344.277 975.885 342.701 978.201C341.586 979.84 340.471 981.48 339.355 983.119C338.683 984.108 338.01 985.098 337.316 986.117C336.723 986.99 336.129 987.862 335.518 988.761C334.337 990.502 333.167 992.25 332 994C371.93 994 411.86 994 453 994C453 1002.25 453 1010.5 453 1019C401.52 1019 350.04 1019 297 1019C297 993.606 297 993.606 304.058 984.454C304.82 983.446 304.82 983.446 305.597 982.417C306.122 981.722 306.647 981.028 307.188 980.312C308.275 978.792 309.357 977.268 310.434 975.74C312.73 972.492 315.049 969.263 317.385 966.044C322.974 958.3 328.246 950.341 333.555 942.404C335.989 938.772 338.437 935.15 340.885 931.527C348.582 920.138 356.204 908.699 363.812 897.25C371.112 886.267 378.47 875.341 386.058 864.555C394.95 851.87 403.448 838.914 412.007 826.005C413.336 824.002 414.667 822 416 820C378.71 820 341.42 820 303 820C303 811.75 303 803.5 303 795Z" fill="white"/>
<path d="M476 795C502.189 792.525 502.189 792.525 509.176 796.119C512.611 799.434 514.096 803.869 515.796 808.244C517.962 813.202 520.962 817.674 523.839 822.244C525.71 825.235 527.53 828.256 529.352 831.277C529.728 831.9 530.103 832.522 530.491 833.163C535.387 841.281 540.199 849.45 545.023 857.611C551.485 868.535 558.115 879.336 565 890C568.011 887.356 569.861 884.116 571.852 880.692C572.223 880.062 572.594 879.433 572.976 878.784C573.777 877.424 574.576 876.063 575.373 874.702C577.512 871.047 579.667 867.401 581.82 863.754C582.258 863.012 582.696 862.27 583.146 861.506C585.859 856.912 588.596 852.336 591.367 847.777C592.052 846.65 592.736 845.522 593.441 844.36C594.818 842.113 596.21 839.875 597.615 837.646C601.134 832.034 604.337 826.441 607.109 820.418C617.799 797.254 617.799 797.254 624.905 794.175C634.64 791.496 645.259 793.123 655 795C653.702 798.454 652.196 801.531 650.27 804.676C649.722 805.573 649.174 806.471 648.61 807.396C648.017 808.358 647.424 809.321 646.812 810.313C646.191 811.327 645.57 812.342 644.929 813.388C639.917 821.553 634.843 829.68 629.754 837.797C623.729 847.412 617.787 857.076 611.848 866.742C606.794 874.967 601.71 883.172 596.625 891.377C594.873 894.205 593.124 897.034 591.375 899.863C590.779 900.827 590.183 901.791 589.569 902.784C588.424 904.636 587.28 906.487 586.136 908.339C585.623 909.168 585.11 909.997 584.582 910.852C584.131 911.582 583.679 912.313 583.214 913.065C582.171 914.728 581.089 916.367 580 918C579.691 919.991 579.691 919.991 579.722 922.195C579.71 923.049 579.699 923.903 579.688 924.783C579.686 925.717 579.683 926.65 579.681 927.612C579.671 928.598 579.661 929.583 579.651 930.599C579.62 933.861 579.603 937.124 579.586 940.387C579.567 942.647 579.548 944.907 579.527 947.167C579.476 953.12 579.436 959.073 579.399 965.026C579.359 971.099 579.308 977.171 579.258 983.244C579.161 995.163 579.078 1007.08 579 1019C570.09 1019 561.18 1019 552 1019C552.048 1016.1 552.097 1013.2 552.146 1010.22C552.296 1000.54 552.361 990.86 552.386 981.18C552.404 975.322 552.448 969.468 552.559 963.611C553.899 927.505 553.899 927.505 537.912 896.37C534.645 892.32 532.092 887.839 529.438 883.375C528.377 881.662 527.314 879.951 526.246 878.242C522.795 872.683 519.395 867.093 516 861.5C511.013 853.287 505.981 845.103 500.91 836.941C496.166 829.294 491.491 821.606 486.844 813.901C483.729 808.757 480.517 803.723 477.082 798.786C476 797 476 797 476 795Z" fill="white"/>
<path fill-rule="evenodd" clip-rule="evenodd" d="M1517 794.903L1513.59 794.887C1512.4 794.939 1511.64 794.972 1511.04 795.296C1509.98 795.869 1509.41 797.349 1507.82 801.444L1506.92 803.781C1503.68 812.185 1500.48 820.607 1497.31 829.035C1495.5 833.839 1493.69 838.643 1491.88 843.446L1490.71 846.531C1486.5 857.676 1482.27 868.812 1478.04 879.945C1472.66 894.084 1467.29 908.226 1461.95 922.383L1461.21 924.356C1458.98 930.288 1456.74 936.221 1454.51 942.154L1453.6 944.559C1449.24 956.157 1444.88 967.755 1440.42 979.317L1439.31 982.188C1437.65 986.484 1435.99 990.781 1434.32 995.071C1433.74 996.568 1433.15 998.066 1432.57 999.564L1431.77 1001.64C1429.51 1007.4 1427.8 1013.01 1426 1019H1455C1456.85 1013.83 1458.7 1008.66 1460.54 1003.49C1461.3 1001.37 1462.06 999.248 1462.81 997.125C1463.92 994.019 1465.04 990.912 1466.14 987.804L1467.21 984.821L1468.22 981.994L1469.19 979.266C1469.81 977.518 1470.41 975.761 1471 974L1474 964L1574 965C1574.34 965.858 1574.69 966.715 1575.03 967.572C1576.41 970.997 1577.78 974.422 1579.09 977.873L1579.92 980.175L1580.89 982.842L1581.89 985.602C1582.97 988.585 1584.06 991.569 1585.14 994.553C1585.89 996.619 1586.63 998.685 1587.38 1000.75L1589.68 1007.07L1590.64 1009.73L1594 1019H1623C1623 1018.81 1623 1018.66 1622.99 1018.5C1622.94 1017.73 1622.66 1016.98 1620.97 1012.51L1620.05 1010.1L1618.87 1006.97C1618.25 1005.31 1617.62 1003.66 1616.99 1002.01C1616.24 1000.03 1615.49 998.052 1614.74 996.07C1612.7 990.681 1610.66 985.293 1608.62 979.906C1606.87 975.293 1605.12 970.68 1603.37 966.067C1593.35 939.593 1583.3 913.13 1573.19 886.688L1572.91 885.954C1568.38 874.105 1563.84 862.256 1559.37 850.386L1558.19 847.258L1558.09 846.987C1556.28 842.189 1554.47 837.391 1552.67 832.589C1547.94 819.992 1543.04 807.474 1538 795C1535.69 794.985 1533.38 794.973 1531.07 794.962C1530.2 794.958 1529.32 794.955 1528.45 794.951L1524.56 794.938L1520.69 794.912L1517 794.903ZM1525 829H1523C1514.66 851.424 1506.47 873.907 1498.37 896.419C1497.92 897.672 1497.47 898.925 1497.02 900.178C1496.69 901.088 1496.36 901.999 1496.03 902.909C1494.77 906.406 1493.51 909.904 1492.25 913.404C1491.78 914.722 1491.31 916.041 1490.83 917.359L1489.49 921.08L1488.23 924.593C1487.64 926.233 1487.24 927.352 1486.85 928.477C1486.03 930.888 1485.3 933.328 1483 941H1566C1566 940.141 1566 939.651 1565.93 939.171C1565.84 938.532 1565.63 937.911 1565.14 936.465L1563.89 933.152L1562.44 929.273C1561.03 925.506 1559.61 921.738 1558.21 917.967L1557.26 915.438C1554.52 908.091 1551.79 900.736 1549.09 893.376L1547.01 887.737C1545.38 883.304 1543.75 878.871 1542.12 874.438C1536.55 859.239 1530.95 844.056 1525 829Z" fill="white"/>
</svg>
