<?xml version="1.0" standalone="no"?>
<!DOCTYPE svg PUBLIC "-//W3C//DTD SVG 20010904//EN"
 "http://www.w3.org/TR/2001/REC-SVG-20010904/DTD/svg10.dtd">
<svg version="1.0" xmlns="http://www.w3.org/2000/svg"
 width="1418.000000pt" height="1418.000000pt" viewBox="0 0 1418.000000 1418.000000"
 preserveAspectRatio="xMidYMid meet">
<metadata>
Created by potrace 1.14, written by Peter Selinger 2001-2017
</metadata>
<g transform="translate(0.000000,1418.000000) scale(0.100000,-0.100000)"
fill="#000000" stroke="none">
<path d="M1174 8523 c5 -10 -14 -13 -84 -13 -64 0 -89 -3 -84 -11 4 -7 -1 -7
-16 1 -15 8 -20 8 -16 1 5 -8 -11 -11 -49 -11 -42 0 -54 -3 -49 -12 5 -9 2 -9
-9 1 -11 9 -17 10 -17 2 0 -6 -16 -11 -35 -11 -19 0 -35 -4 -35 -10 0 -5 -18
-10 -40 -10 -22 0 -40 -4 -40 -10 0 -5 -11 -10 -24 -10 -13 0 -36 -7 -52 -14
-15 -8 -31 -13 -36 -10 -4 3 -8 0 -8 -5 0 -6 -7 -11 -15 -11 -16 0 -56 -20
-66 -32 -3 -5 -17 -9 -31 -10 -15 -1 -24 -6 -22 -10 3 -4 -2 -8 -10 -8 -9 0
-16 -4 -16 -10 0 -5 -7 -10 -15 -10 -9 0 -27 -11 -41 -25 -14 -14 -30 -23 -35
-19 -5 3 -8 2 -7 -3 2 -4 -1 -9 -5 -10 -16 -4 -157 -157 -157 -170 0 -7 -4
-13 -8 -13 -5 0 -14 -16 -22 -35 -7 -19 -18 -31 -24 -28 -6 3 -8 3 -4 -1 4 -5
-2 -24 -12 -44 -11 -19 -17 -39 -14 -44 3 -4 0 -8 -5 -8 -6 0 -11 -15 -11 -32
0 -25 -3 -29 -10 -18 -7 11 -10 6 -10 -21 0 -19 -6 -41 -12 -48 -11 -11 -10
-12 2 -6 12 6 13 5 3 -6 -7 -7 -13 -33 -13 -57 0 -24 -4 -41 -8 -38 -5 3 -9
-1 -9 -9 0 -8 4 -12 9 -9 4 3 8 0 8 -5 0 -6 -6 -11 -12 -11 -9 0 -8 -4 2 -10
8 -5 10 -10 5 -10 -17 0 -19 -168 -3 -188 10 -12 10 -14 1 -8 -7 4 -13 3 -13
-3 0 -5 5 -13 10 -16 8 -5 8 -11 0 -20 -8 -9 -8 -15 0 -20 5 -3 10 -43 10 -91
0 -47 4 -83 9 -80 4 3 8 -5 8 -17 -1 -87 4 -131 13 -117 7 11 10 -1 10 -40 0
-31 6 -62 13 -69 10 -11 9 -12 -3 -6 -12 7 -13 6 -3 -6 7 -8 14 -34 15 -56 2
-23 6 -39 10 -36 5 2 8 -9 8 -26 0 -16 4 -32 8 -35 4 -2 9 -19 10 -38 2 -18 7
-37 12 -42 6 -6 10 -22 10 -37 0 -15 4 -29 9 -31 5 -1 11 -14 13 -28 1 -14 6
-28 10 -31 5 -3 9 -17 10 -32 1 -15 6 -27 10 -27 4 0 8 -9 8 -20 0 -11 5 -20
11 -20 5 0 8 -4 5 -9 -3 -4 1 -17 9 -27 8 -10 15 -29 15 -41 0 -13 5 -23 10
-23 6 0 10 -9 10 -20 0 -11 5 -20 11 -20 5 0 8 -4 4 -9 -3 -5 2 -16 10 -25 8
-8 16 -26 17 -40 1 -13 6 -22 10 -20 7 5 12 -19 9 -39 -1 -5 3 -6 9 -2 6 3 10
-3 10 -15 0 -12 5 -18 10 -15 6 3 10 -3 10 -14 0 -12 5 -21 10 -21 6 0 10 -9
10 -21 0 -11 4 -17 10 -14 5 3 10 0 10 -8 0 -20 26 -68 33 -61 3 3 11 -10 18
-30 7 -19 16 -33 21 -30 4 3 8 -1 8 -9 0 -8 14 -29 30 -47 17 -18 30 -36 30
-41 0 -14 170 -179 185 -179 8 0 15 -4 15 -10 0 -5 9 -10 20 -10 11 0 20 -4
20 -10 0 -5 14 -10 30 -10 17 0 30 -5 30 -12 0 -9 4 -8 10 2 6 10 10 11 10 3
0 -16 76 -18 85 -3 3 6 16 10 28 10 13 0 29 9 37 20 10 14 16 16 22 7 5 -8 8
-7 8 4 0 9 11 24 25 33 14 9 23 20 21 25 -3 4 4 14 15 21 10 8 19 22 19 32 0
10 5 18 10 18 6 0 10 9 10 20 0 11 5 20 10 20 6 0 10 9 10 20 0 11 4 20 9 20
5 0 15 16 22 34 7 19 16 33 21 30 4 -3 8 2 8 11 0 9 7 23 15 32 8 8 13 19 9
24 -3 5 0 8 6 7 7 -2 17 6 23 17 18 29 34 45 47 45 6 0 8 5 5 10 -3 6 3 10 15
10 12 0 18 5 15 10 -3 6 5 10 19 10 13 0 27 6 29 13 4 10 6 10 6 0 1 -7 14
-13 30 -13 23 0 45 -15 95 -64 36 -35 66 -69 66 -76 0 -6 7 -18 15 -27 8 -8
12 -19 9 -25 -4 -7 -2 -8 4 -4 7 4 12 1 12 -8 0 -9 5 -16 11 -16 5 0 8 -4 4
-9 -3 -5 0 -15 7 -23 7 -7 14 -20 16 -28 2 -8 8 -16 13 -18 5 -2 9 -12 9 -23
0 -10 5 -19 11 -19 5 0 7 -4 4 -10 -3 -5 -1 -10 6 -10 7 0 10 -3 6 -6 -9 -9
80 -94 98 -94 9 0 13 -4 10 -10 -4 -6 9 -10 32 -10 29 0 34 -3 23 -10 -11 -7
3 -10 47 -8 34 2 59 6 57 10 -5 7 36 13 59 9 5 -1 6 3 2 9 -5 9 15 15 38 11 5
-1 6 3 2 9 -3 5 1 10 9 10 9 0 16 5 16 10 0 6 7 10 15 10 8 0 24 14 37 30 12
17 28 30 35 30 12 0 17 13 14 33 -1 5 3 6 9 2 5 -3 10 -1 10 5 0 6 5 8 12 4 6
-4 8 -3 5 3 -3 5 5 21 19 36 13 14 24 31 24 37 0 6 5 8 10 5 6 -3 10 1 10 11
0 9 9 24 19 33 11 10 21 24 23 31 2 8 13 25 26 38 12 13 20 27 18 31 -3 4 4
14 15 21 10 8 19 20 19 27 0 15 19 51 38 71 7 7 10 18 7 23 -4 5 -2 9 3 9 11
0 55 84 55 105 0 8 4 15 9 15 4 0 8 9 8 21 0 11 5 17 10 14 6 -3 10 5 10 19 0
13 4 26 10 28 5 2 11 15 12 31 1 15 6 27 10 27 4 0 8 12 8 26 0 14 4 23 10 19
6 -4 10 7 10 24 0 17 5 31 10 31 6 0 10 11 10 24 0 14 5 28 10 31 6 3 10 19
10 36 0 16 5 29 10 29 6 0 10 14 10 30 0 17 4 30 8 30 4 0 9 17 10 38 2 20 7
39 12 40 6 2 10 27 10 55 0 37 3 48 10 37 7 -11 10 -3 11 30 1 25 1 48 0 53 0
4 3 7 9 7 6 0 10 27 10 60 0 33 4 60 8 60 5 0 10 30 12 68 1 37 3 72 3 79 0 7
4 10 9 7 8 -5 10 50 10 236 -1 139 -5 210 -12 210 -3 0 -7 16 -8 36 -2 20 -7
45 -12 55 -6 10 -10 29 -10 43 0 14 -4 26 -10 26 -5 0 -10 15 -10 33 0 24 -3
28 -10 17 -8 -12 -10 -10 -10 10 0 14 -7 34 -15 44 -8 10 -12 23 -8 29 3 6 1
7 -5 3 -7 -4 -12 -1 -12 8 0 8 -4 16 -9 18 -5 2 -11 10 -13 18 -2 8 -16 27
-32 42 -15 16 -24 28 -20 28 4 0 -11 17 -33 39 -23 21 -39 42 -35 46 4 5 2 5
-4 2 -6 -3 -22 5 -37 19 -14 13 -31 24 -37 24 -6 0 -8 5 -5 10 3 6 -3 10 -14
10 -12 0 -21 5 -21 10 0 6 -7 10 -16 10 -9 0 -12 5 -8 12 4 6 3 8 -4 4 -6 -3
-17 1 -25 9 -9 8 -23 15 -31 15 -9 0 -16 5 -16 10 0 6 -12 10 -26 10 -14 0
-23 4 -19 10 4 6 -5 10 -20 10 -15 0 -24 4 -20 10 4 6 3 10 -2 9 -23 -4 -64 2
-59 9 2 4 -10 9 -27 10 -17 2 -34 7 -37 12 -3 5 -24 10 -47 11 -23 2 -40 6
-37 11 3 4 -13 8 -36 8 -30 0 -39 3 -34 13 5 7 0 6 -11 -3 -11 -9 -16 -10 -11
-2 5 9 -6 12 -44 12 -28 0 -49 4 -46 8 3 5 -1 9 -9 9 -8 0 -12 -3 -10 -7 2 -4
-2 -7 -10 -7 -8 0 -12 4 -9 9 5 7 -29 10 -138 11 -21 0 -36 3 -34 6 2 3 -7 7
-21 8 -19 1 -22 -1 -12 -8 9 -6 10 -9 2 -9 -6 0 -15 5 -18 10 -3 6 -11 10 -16
10 -6 0 -8 -4 -5 -9 7 -10 -13 -9 -29 1 -18 11 -267 9 -281 -2 -8 -8 -14 -8
-19 0 -3 5 -13 10 -21 10 -8 0 -12 -4 -9 -10 3 -5 1 -10 -4 -10 -6 0 -11 5
-11 10 0 6 -5 10 -11 10 -5 0 -7 -6 -3 -12 5 -8 0 -7 -11 2 -11 9 -16 10 -11
3z m22 -125 c-4 7 -1 12 9 12 10 0 13 -5 9 -12 -5 -9 -2 -9 9 1 14 11 20 11
34 0 11 -9 14 -9 10 -2 -6 10 30 12 158 12 94 0 165 -4 165 -10 0 -5 5 -9 11
-9 5 0 7 5 4 10 -3 6 1 10 10 10 9 0 13 -5 9 -11 -5 -8 -1 -8 14 0 25 14 43
14 22 1 -10 -7 12 -10 73 -10 63 0 87 -3 87 -12 0 -8 3 -9 8 -3 9 13 35 18 27
5 -4 -6 8 -10 30 -10 22 0 34 -4 30 -10 -4 -6 11 -10 37 -10 31 0 39 -3 28
-10 -12 -8 -9 -10 12 -10 28 0 108 -38 108 -52 0 -4 9 -8 20 -8 11 0 20 -4 20
-10 0 -5 7 -10 16 -10 19 0 136 -118 129 -131 -4 -5 -1 -9 4 -9 6 0 11 -9 11
-20 0 -11 4 -20 8 -20 4 0 9 -18 10 -40 2 -23 -2 -40 -8 -40 -5 0 -9 -3 -9 -7
4 -25 -5 -43 -35 -76 -18 -20 -39 -37 -45 -37 -7 0 -9 -5 -5 -12 4 -6 3 -8 -4
-4 -6 3 -17 -1 -25 -9 -9 -8 -23 -15 -31 -15 -9 0 -16 -4 -16 -10 0 -5 -21
-10 -46 -10 -27 0 -43 -4 -39 -10 3 -5 -1 -10 -10 -10 -10 0 -14 5 -9 13 5 9
4 9 -6 0 -11 -10 -17 -10 -29 0 -12 9 -13 9 -7 0 4 -8 1 -13 -9 -13 -9 0 -14
4 -11 8 3 5 -1 9 -9 9 -8 0 -15 -5 -15 -10 0 -5 -5 -5 -13 1 -7 6 -34 12 -59
13 -26 2 -45 6 -42 11 3 4 -11 8 -30 8 -19 0 -38 5 -41 10 -3 6 -20 10 -36 10
-18 0 -28 4 -24 10 4 6 -7 10 -25 10 -18 0 -29 4 -25 10 4 6 -7 10 -25 10 -18
0 -29 4 -25 10 4 6 -6 10 -22 10 -15 0 -39 9 -53 20 -14 11 -35 20 -47 20 -13
0 -23 5 -23 10 0 6 -11 10 -25 10 -14 0 -25 5 -25 10 0 6 -11 10 -25 10 -14 0
-25 5 -25 10 0 6 -9 10 -20 10 -11 0 -20 5 -20 10 0 6 -11 10 -24 10 -14 0
-28 5 -31 10 -3 6 -17 10 -31 10 -14 0 -22 4 -19 10 4 6 -7 10 -25 10 -18 0
-29 4 -25 10 4 6 -5 10 -20 10 -14 0 -33 4 -43 9 -29 14 -87 31 -110 31 -11 0
-24 5 -27 10 -3 6 -26 10 -50 10 -24 0 -47 5 -50 10 -5 8 -12 7 -23 -2 -13
-11 -14 -11 -8 0 6 10 -18 13 -123 11 -72 0 -131 -5 -131 -10 0 -5 -23 -9 -51
-9 -31 0 -48 -4 -44 -10 3 -5 1 -10 -4 -10 -6 0 -11 6 -12 13 0 10 -2 10 -6 0
-2 -7 -16 -13 -29 -13 -16 0 -23 -4 -18 -11 5 -8 -4 -10 -29 -7 -20 2 -33 0
-31 -4 3 -5 -1 -15 -9 -23 -13 -12 -16 -12 -20 -1 -5 14 21 46 37 46 5 0 21
14 36 30 15 17 35 30 45 30 9 0 13 5 10 10 -3 6 3 10 15 10 12 0 18 5 15 10
-3 6 0 10 7 10 19 0 68 23 68 33 0 4 12 7 26 7 14 0 23 4 20 8 -2 4 7 9 22 10
15 1 28 7 30 12 2 6 17 10 33 10 18 0 28 4 24 10 -4 6 10 10 35 10 25 0 39 4
35 10 -4 6 9 10 32 10 22 0 43 4 49 10 5 5 35 10 66 11 32 1 55 5 53 9 -3 4 1
8 8 7 6 0 52 1 100 1 68 2 86 5 81 15 -5 7 0 6 11 -3 11 -9 16 -10 11 -2z
m1239 -230 c5 4 5 1 1 -5 -4 -8 -1 -13 9 -13 9 0 13 -4 10 -10 -3 -5 -1 -10 5
-10 17 0 91 -80 84 -91 -3 -5 -2 -8 3 -7 4 2 9 -1 10 -5 1 -5 10 -16 20 -25
23 -22 43 -57 43 -77 0 -8 5 -15 10 -15 6 0 10 -9 10 -20 0 -11 4 -20 8 -20 4
0 9 -12 10 -27 1 -15 6 -29 10 -32 4 -3 9 -22 11 -41 2 -19 7 -38 13 -41 15
-9 11 -418 -4 -437 -10 -12 -10 -14 0 -8 6 4 12 2 12 -3 0 -6 -4 -11 -10 -11
-6 0 -10 -27 -10 -61 0 -45 -3 -58 -12 -53 -10 6 -10 4 0 -7 6 -7 12 -18 12
-24 0 -5 -5 -3 -10 5 -7 11 -10 -3 -10 -47 0 -34 -4 -65 -10 -68 -5 -3 -10
-26 -10 -51 0 -28 -4 -43 -10 -39 -6 4 -10 -8 -10 -30 0 -24 -4 -34 -11 -29
-7 4 -7 -1 1 -16 8 -15 8 -20 1 -16 -9 6 -17 -28 -12 -56 0 -5 -4 -8 -9 -8 -6
0 -10 -13 -10 -30 0 -16 -4 -30 -10 -30 -5 0 -10 -13 -10 -30 0 -16 -4 -30
-10 -30 -5 0 -10 -13 -10 -29 0 -16 -4 -31 -10 -33 -5 -1 -11 -15 -12 -30 -1
-16 -6 -28 -10 -28 -4 0 -8 -7 -8 -15 0 -15 -4 -25 -28 -72 -7 -13 -12 -30
-12 -38 0 -9 -4 -13 -10 -10 -6 4 -10 -5 -10 -20 0 -15 -4 -24 -10 -20 -6 4
-10 -5 -10 -19 0 -14 -4 -26 -10 -26 -5 0 -10 -9 -10 -20 0 -11 -4 -20 -10
-20 -5 0 -10 -9 -10 -21 0 -11 -4 -17 -10 -14 -9 5 -15 -16 -11 -38 1 -5 -3
-6 -9 -2 -6 3 -10 -3 -10 -15 0 -12 -4 -18 -10 -15 -5 3 -10 -3 -10 -15 0 -12
-4 -18 -10 -15 -5 3 -10 -2 -10 -13 0 -10 -9 -28 -20 -39 -11 -12 -21 -27 -22
-34 -2 -7 -13 -24 -26 -37 -12 -13 -20 -28 -16 -33 3 -5 0 -8 -6 -7 -7 2 -17
-6 -23 -16 -18 -30 -115 -126 -127 -126 -6 0 -8 -5 -4 -12 4 -6 3 -8 -4 -4 -6
3 -17 -1 -25 -9 -9 -8 -23 -15 -31 -15 -9 0 -16 -5 -16 -10 0 -6 -17 -10 -40
-8 -22 1 -40 4 -40 8 0 3 -14 11 -30 18 -17 8 -28 18 -24 23 3 5 0 9 -7 9 -7
0 -9 3 -6 6 4 4 -3 15 -15 25 -11 11 -18 19 -15 19 4 0 -2 16 -13 37 -10 20
-16 41 -13 47 3 6 3 8 -2 4 -8 -8 -35 35 -35 57 0 7 -7 25 -14 41 -8 15 -13
31 -10 36 3 4 0 8 -5 8 -6 0 -11 9 -11 20 0 11 -4 20 -10 20 -5 0 -10 14 -10
30 0 17 -4 30 -10 30 -5 0 -10 14 -10 30 0 17 -4 30 -8 30 -4 0 -9 12 -10 28
-1 15 -7 29 -12 30 -6 2 -10 17 -10 33 0 16 -4 29 -8 29 -4 0 -9 12 -10 27 -1
15 -5 29 -10 32 -4 3 -9 17 -11 31 -1 14 -6 27 -10 30 -3 3 -8 16 -9 30 -2 14
-8 27 -13 28 -5 2 -9 20 -9 40 0 28 -3 33 -10 22 -8 -12 -10 -9 -10 12 0 15
-4 30 -10 33 -5 3 -10 17 -10 31 0 13 -5 24 -11 24 -5 0 -8 4 -5 9 3 4 -1 17
-9 27 -8 10 -15 29 -15 42 0 12 -4 22 -10 22 -5 0 -10 9 -10 20 0 11 -4 20
-10 20 -5 0 -10 9 -10 20 0 11 -4 20 -10 20 -5 0 -9 3 -8 8 4 11 -26 72 -34
72 -5 0 -8 9 -8 20 0 11 -4 20 -10 20 -5 0 -10 8 -10 18 0 10 -9 24 -20 32
-11 8 -20 22 -20 32 0 10 -4 18 -8 18 -5 0 -15 12 -23 28 -8 15 -22 34 -31 43
-10 9 -18 23 -18 30 0 8 -9 21 -20 29 -11 8 -20 20 -20 27 0 7 -9 17 -20 23
-11 6 -20 15 -20 20 0 12 -186 200 -197 200 -5 0 -22 14 -40 30 -18 17 -39 30
-47 30 -9 0 -16 5 -16 10 0 6 -7 10 -16 10 -8 0 -12 5 -9 10 5 9 -24 15 -48
11 -5 -1 -6 3 -2 9 4 6 -4 10 -19 10 -14 0 -28 5 -31 10 -3 6 -17 10 -31 10
-13 0 -24 6 -25 13 0 9 -2 9 -6 -1 -4 -10 -8 -10 -21 0 -13 11 -15 11 -7 -2 6
-12 5 -13 -6 -2 -16 14 -89 16 -89 2 0 -5 -5 -10 -11 -10 -5 0 -7 6 -3 13 6
10 4 10 -7 0 -7 -7 -25 -13 -40 -13 -15 0 -31 -4 -34 -10 -3 -5 -15 -10 -26
-10 -11 0 -17 -4 -14 -10 3 -5 -1 -10 -10 -10 -9 0 -22 -6 -29 -12 -7 -7 -27
-24 -44 -37 -18 -13 -32 -29 -32 -35 0 -7 -9 -18 -20 -26 -11 -8 -20 -20 -20
-28 0 -7 -7 -20 -15 -29 -8 -8 -13 -19 -10 -24 4 -5 1 -9 -4 -9 -6 0 -11 -15
-11 -32 0 -25 -3 -29 -10 -18 -7 11 -10 6 -10 -22 0 -20 -4 -40 -10 -43 -5 -3
-10 -21 -10 -38 0 -24 -3 -28 -10 -17 -5 8 -10 37 -10 63 0 36 -3 46 -12 41
-9 -5 -9 -2 1 9 10 13 10 17 1 17 -9 0 -9 4 1 17 10 11 10 14 2 9 -7 -4 -13
-3 -13 1 0 5 6 15 13 22 9 11 9 13 0 7 -17 -9 -17 16 0 33 8 10 8 12 0 7 -14
-7 -16 52 -2 69 4 6 9 34 10 62 1 29 6 50 11 47 7 -4 13 34 9 59 0 4 3 7 9 7
5 0 10 9 10 20 0 11 5 20 10 20 6 0 10 8 10 18 0 10 9 24 19 32 11 7 18 17 15
22 -3 4 -1 8 5 8 5 0 18 14 28 30 9 17 23 30 30 30 7 0 17 9 23 20 6 11 17 20
25 20 8 0 15 5 15 10 0 6 9 10 20 10 11 0 20 5 20 10 0 6 9 10 20 10 11 0 20
5 20 10 0 6 14 10 31 10 17 0 28 4 24 10 -4 6 10 10 34 10 26 0 41 5 41 13 0
8 4 7 10 -3 5 -8 10 -10 10 -3 0 17 230 18 230 1 0 -10 2 -10 9 1 6 9 11 10
15 2 4 -6 27 -11 52 -11 24 0 44 -4 44 -10 0 -5 21 -10 46 -10 27 0 43 -4 39
-10 -4 -6 7 -10 24 -10 17 0 31 -4 31 -10 0 -5 14 -10 30 -10 17 0 30 -4 30
-10 0 -5 9 -10 20 -10 11 0 20 -6 20 -12 0 -9 4 -8 10 2 6 10 10 11 10 3 0 -7
9 -13 20 -13 11 0 20 -4 20 -10 0 -5 14 -10 30 -10 17 0 30 -4 30 -10 0 -5 9
-10 20 -10 11 0 20 -4 20 -10 0 -5 12 -10 26 -10 14 0 23 -4 19 -10 -5 -9 23
-15 48 -11 4 0 7 -4 7 -9 0 -6 9 -10 19 -10 11 0 21 -4 23 -10 2 -5 15 -11 30
-12 15 -1 24 -6 22 -10 -3 -4 6 -8 20 -8 13 0 26 -4 28 -10 2 -5 15 -11 30
-12 15 -1 24 -6 22 -10 -5 -7 36 -13 59 -9 5 1 6 -3 2 -9 -5 -9 31 -16 58 -11
5 1 6 -3 2 -9 -4 -6 8 -10 29 -10 20 0 36 -4 36 -10 0 -5 25 -10 55 -10 36 0
55 -4 55 -12 0 -9 3 -9 12 0 15 15 32 16 22 1 -5 -8 -1 -8 14 0 14 8 23 8 27
1 5 -8 11 -7 21 1 11 9 17 9 28 0 10 -8 16 -9 21 -1 3 5 19 10 35 10 16 0 32
5 35 10 3 6 17 10 31 10 13 0 24 6 25 13 0 9 2 9 6 0 3 -9 11 -7 26 7 11 11
26 20 32 20 6 0 17 9 25 20 8 11 21 20 29 20 8 0 11 3 8 7 -4 3 3 11 14 17 12
6 21 15 20 19 -1 5 7 17 18 26 12 10 21 26 21 35 0 10 5 14 10 11 8 -5 15 31
11 58 0 4 3 7 8 7 10 0 7 96 -4 148 -4 17 -11 32 -16 32 -5 0 -9 7 -9 16 0 13
3 14 13 5 8 -6 18 -7 22 -3z m-1819 -609 c4 -8 9 -7 15 2 6 10 9 11 9 2 0 -8
13 -13 30 -13 17 0 30 -4 30 -10 0 -5 7 -10 15 -10 17 0 52 -18 73 -38 7 -7
18 -9 24 -6 7 4 8 2 4 -4 -4 -7 -1 -12 6 -12 8 0 20 -9 28 -20 8 -11 20 -20
27 -20 7 0 17 -9 23 -20 6 -11 17 -20 25 -20 9 0 15 -10 16 -22 0 -13 3 -18 6
-11 3 10 7 10 18 0 7 -7 11 -15 8 -19 -2 -5 3 -8 11 -8 9 0 15 -3 15 -7 -1 -5
-1 -15 0 -23 1 -13 2 -13 11 0 8 12 10 10 10 -8 0 -13 4 -21 8 -18 5 3 15 -6
22 -19 7 -14 17 -25 22 -25 4 0 8 -7 8 -16 0 -8 4 -12 10 -9 5 3 10 0 10 -8 0
-7 9 -23 20 -35 11 -12 20 -26 20 -32 0 -6 5 -8 10 -5 6 3 10 -1 10 -10 0 -9
9 -25 20 -37 11 -12 20 -28 20 -35 0 -7 5 -13 10 -13 6 0 10 -9 10 -21 0 -11
5 -17 10 -14 9 5 15 -16 11 -38 -1 -5 3 -6 9 -2 5 3 10 -1 10 -9 0 -9 5 -16
10 -16 6 0 10 -6 10 -14 0 -12 14 -44 51 -118 5 -10 9 -25 9 -33 0 -8 5 -15
10 -15 6 0 10 -12 10 -27 0 -22 2 -25 10 -13 8 12 10 9 10 -12 0 -15 5 -30 10
-33 6 -3 10 -20 10 -36 0 -18 4 -28 10 -24 9 5 15 -23 11 -47 0 -5 3 -8 7 -8
5 0 9 -7 10 -15 1 -8 3 -22 4 -30 1 -8 5 -15 10 -15 4 0 8 -13 8 -30 0 -16 5
-30 10 -30 6 0 10 -9 10 -19 0 -11 5 -23 10 -26 6 -3 10 -22 10 -41 0 -19 5
-34 10 -34 6 0 9 -13 8 -30 -1 -20 -6 -26 -12 -20 -6 6 -25 10 -44 10 -18 0
-31 4 -28 8 3 5 -1 9 -9 9 -8 0 -12 -4 -9 -9 3 -4 -16 -8 -41 -8 -29 0 -44 -4
-40 -10 4 -6 3 -10 -2 -9 -24 4 -53 -2 -48 -11 3 -5 1 -10 -6 -10 -6 0 -19 -8
-28 -17 -9 -10 -24 -22 -34 -28 -10 -5 -18 -14 -17 -18 0 -4 -13 -21 -30 -37
-16 -15 -30 -35 -30 -45 0 -9 -4 -13 -10 -10 -5 3 -10 -1 -10 -9 0 -9 -4 -16
-10 -16 -5 0 -10 -7 -10 -16 0 -8 -7 -22 -15 -31 -8 -8 -13 -19 -10 -24 4 -5
1 -9 -4 -9 -6 0 -11 -9 -11 -21 0 -11 -4 -17 -10 -14 -9 5 -15 -15 -11 -37 0
-5 -3 -8 -9 -8 -5 0 -10 -10 -10 -22 0 -19 -2 -20 -10 -8 -8 13 -10 12 -10 -3
0 -22 -43 -67 -65 -67 -8 0 -15 -5 -15 -10 0 -6 -17 -10 -39 -8 -22 1 -38 5
-35 10 3 4 -2 8 -10 8 -9 0 -16 6 -17 13 0 9 -2 9 -6 0 -3 -8 -13 -4 -29 12
-14 14 -30 23 -35 19 -5 -3 -8 0 -7 8 2 7 -3 12 -10 10 -6 -1 -11 4 -10 10 2
7 -3 12 -9 10 -8 -1 -13 8 -13 20 0 19 -2 20 -10 8 -8 -12 -10 -10 -10 10 0
20 -2 22 -10 10 -8 -13 -10 -12 -10 3 0 10 -11 29 -25 43 -14 14 -23 30 -19
35 3 5 0 8 -7 7 -7 -2 -18 7 -24 20 -5 12 -13 22 -17 22 -5 0 -8 6 -8 13 0 7
-8 22 -17 33 -10 11 -19 26 -21 34 -2 8 -8 17 -13 18 -5 2 -9 12 -9 23 0 10
-4 19 -10 19 -5 0 -10 7 -10 15 0 9 -9 25 -20 37 -18 20 -25 39 -21 61 0 4 -4
7 -9 7 -6 0 -10 7 -10 15 0 8 -9 30 -20 50 -11 20 -20 44 -20 55 0 11 -4 20
-8 20 -5 0 -9 7 -10 15 -1 8 -3 22 -4 30 -1 8 -5 15 -10 15 -4 0 -8 11 -8 24
0 14 -4 28 -10 31 -5 3 -10 19 -10 35 0 16 -5 32 -10 35 -5 3 -10 24 -10 46 0
22 -3 38 -8 35 -6 -4 -11 27 -15 111 -1 12 -5 19 -10 16 -4 -3 -7 83 -6 191 1
107 6 193 10 190 5 -3 9 16 9 43 0 35 3 44 10 33 8 -12 10 -11 10 8 0 30 23
102 32 102 5 0 8 6 8 13 0 17 45 68 54 60 3 -3 6 -1 6 6 0 17 25 41 43 41 9 0
17 4 19 10 2 5 15 11 31 12 15 1 27 6 27 10 0 12 88 9 96 -3z"/>
<path d="M3235 7798 c0 -62 3 -115 6 -118 4 -3 174 -5 378 -5 204 0 371 -1
371 -2 0 -3 -313 -500 -355 -563 -13 -19 -108 -168 -211 -330 l-187 -295 -2
-107 -2 -108 542 0 542 0 -1 117 -1 117 -375 1 c-295 0 -374 3 -372 13 1 7 26
49 55 95 30 45 197 307 372 582 l319 500 1 108 2 107 -541 0 -542 0 1 -112z"/>
<path d="M6340 7567 c-188 -57 -322 -179 -395 -362 -64 -163 -67 -377 -5 -554
48 -136 168 -275 292 -335 107 -53 166 -65 293 -62 83 2 126 8 174 25 74 26
170 88 224 145 l38 41 -4 -165 c-6 -190 -21 -248 -86 -322 -118 -133 -355
-154 -522 -47 -56 37 -119 113 -119 146 0 10 -31 13 -135 13 -154 0 -147 5
-119 -91 18 -60 71 -152 106 -185 46 -42 117 -92 159 -112 106 -50 133 -54
366 -50 l219 3 78 38 c139 69 237 182 294 339 l27 73 3 733 3 732 -136 0
c-154 0 -138 14 -136 -113 l1 -69 -59 54 c-111 100 -230 145 -387 146 -76 1
-117 -4 -174 -21z m335 -225 c48 -14 130 -64 164 -101 72 -77 110 -173 116
-293 11 -223 -100 -396 -290 -451 -131 -38 -276 4 -377 108 -102 106 -143 290
-101 455 56 216 274 342 488 282z"/>
<path d="M7995 7574 c-256 -55 -450 -266 -489 -533 -54 -371 137 -686 467
-771 99 -25 256 -25 355 1 302 77 494 330 493 649 -1 245 -105 449 -286 566
-145 92 -357 127 -540 88z m317 -252 c83 -38 131 -81 172 -156 42 -76 56 -127
60 -219 7 -195 -73 -349 -221 -422 -69 -34 -97 -39 -195 -39 -65 0 -86 5 -140
32 -75 37 -124 83 -161 150 -71 130 -75 343 -9 482 85 180 307 257 494 172z"/>
<path d="M9608 7575 c-77 -19 -151 -58 -204 -107 l-44 -41 -1 49 c-2 98 12 89
-136 92 l-133 3 0 -651 0 -650 133 0 134 0 0 383 c0 210 4 405 7 432 24 177
159 281 349 270 154 -10 263 -109 291 -265 3 -14 5 -204 5 -422 l1 -398 134 0
134 0 0 394 c0 438 4 476 58 558 63 95 154 137 285 133 164 -7 274 -103 303
-265 3 -14 5 -204 5 -422 l1 -398 134 0 133 0 -2 443 c-1 243 -5 451 -8 462
-3 11 -8 34 -12 50 -16 66 -71 160 -124 215 -95 97 -217 145 -373 149 -182 4
-347 -73 -440 -208 l-31 -43 -27 44 c-54 87 -171 164 -287 192 -78 18 -215 18
-285 1z"/>
<path d="M11890 7566 c-205 -61 -356 -221 -415 -441 -24 -86 -28 -263 -9 -355
52 -260 216 -443 451 -504 68 -18 223 -18 293 0 101 26 193 78 260 148 19 20
37 36 40 36 3 0 5 -40 4 -90 l-1 -90 137 0 136 0 0 650 0 650 -136 0 -136 0 1
-90 c1 -49 1 -90 0 -90 -1 0 -24 22 -52 48 -61 58 -165 114 -251 137 -89 23
-227 19 -322 -9z m356 -230 c166 -59 266 -215 267 -416 0 -177 -76 -317 -214
-393 -118 -64 -282 -55 -389 21 -123 89 -181 214 -181 387 1 129 43 234 127
319 34 33 128 83 182 95 51 12 158 5 208 -13z"/>
<path d="M4460 7565 c0 -2 113 -287 252 -632 138 -345 251 -635 250 -644 0
-10 -58 -153 -127 -319 -70 -166 -125 -304 -121 -307 5 -6 266 -7 270 -1 1 2
24 55 50 118 26 63 133 320 238 570 104 250 206 493 225 540 19 47 41 99 48
115 8 17 30 71 50 120 20 50 48 114 61 143 13 29 24 55 24 58 0 3 7 20 14 37
8 18 31 70 50 117 l35 85 -136 3 c-75 1 -138 1 -140 -1 -2 -3 -28 -69 -58
-148 -31 -79 -59 -153 -64 -164 -5 -11 -65 -165 -132 -343 -68 -177 -126 -319
-130 -315 -4 5 -50 127 -104 273 -98 266 -108 294 -205 558 l-53 142 -148 0
c-82 0 -149 -2 -149 -5z"/>
</g>
</svg>
